<?xml version="1.0" encoding="utf-8"?>
<!-- Generator: Adobe Illustrator 26.3.1, SVG Export Plug-In . SVG Version: 6.00 Build 0)  -->
<svg version="1.1" id="a" xmlns="http://www.w3.org/2000/svg" xmlns:xlink="http://www.w3.org/1999/xlink" x="0px" y="0px"
	 viewBox="0 0 1269.8 302.9" style="enable-background:new 0 0 1269.8 302.9;" xml:space="preserve">
<style type="text/css">
	.st0{fill:#231F20;}
</style>
<path class="st0" d="M133,17.8l81,210h-31.5l-18.6-48H69.1l-18.6,48H19l81-210H133L133,17.8z M79.9,151.3h73.2l-36.6-94.5
	L79.9,151.3L79.9,151.3z"/>
<path class="st0" d="M314.5,74.8c19.2,0,34.8,6.4,46.8,19.2c11.8,12.6,17.7,28.7,17.7,48.3v85.5h-30v-82.5c0-13-3.8-23.2-11.4-30.6
	c-7.4-7.6-17.6-11.4-30.6-11.4s-23.2,3.8-30.6,11.4c-7.6,7.4-11.4,17.6-11.4,30.6v82.5h-30v-150h30V97
	C277.2,82.2,293.7,74.8,314.5,74.8z"/>
<path class="st0" d="M484.9,74.8c22.8,0,41.6,7.4,56.4,22.2c15,14.6,22.5,33.2,22.5,55.8s-7.5,41.2-22.5,55.8
	c-14.8,14.8-33.6,22.2-56.4,22.2s-41.6-7.4-56.4-22.2c-15-14.6-22.5-33.2-22.5-55.8s7.5-41.2,22.5-55.8
	C443.3,82.2,462.1,74.8,484.9,74.8L484.9,74.8z M484.9,201.7c14.2,0,25.9-4.6,35.1-13.8c9.2-9.2,13.8-20.9,13.8-35.1
	s-4.6-25.9-13.8-35.1c-9.2-9.2-20.9-13.8-35.1-13.8s-25.9,4.6-35.1,13.8S436,138.6,436,152.8s4.6,25.9,13.8,35.1
	C459,197.1,470.7,201.7,484.9,201.7z"/>
<path class="st0" d="M766.3,74.8c18.4,0,33.3,6.1,44.7,18.3c11.2,12,16.8,27.4,16.8,46.2v88.5h-30v-88.5c0-11-3.2-19.8-9.6-26.4
	c-6.6-6.4-15.4-9.6-26.4-9.6s-19.8,3.2-26.4,9.6c-6.4,6.6-9.6,15.4-9.6,26.4v88.5h-30v-88.5c0-11-3.2-19.8-9.6-26.4
	c-6.6-6.4-15.4-9.6-26.4-9.6s-19.8,3.2-26.4,9.6c-6.4,6.6-9.6,15.4-9.6,26.4v88.5h-30v-150h30v15.6c11-12.4,25.5-18.6,43.5-18.6
	c21.6,0,37.8,8.5,48.6,25.5C727.5,83.3,744.3,74.8,766.3,74.8z"/>
<path class="st0" d="M1013.8,77.8v150h-30V208c-14.4,15.2-32.4,22.8-54,22.8s-39.2-7.4-53.4-22.2c-14.4-15-21.6-33.6-21.6-55.8
	S862,112,876.4,97c14.2-14.8,32-22.2,53.4-22.2s39.6,7.6,54,22.8V77.8L1013.8,77.8L1013.8,77.8z M934.3,202.3
	c14.6,0,26.5-4.6,35.7-13.8s13.8-21.1,13.8-35.7s-4.6-26.5-13.8-35.7c-9.2-9.2-21.1-13.8-35.7-13.8s-26.5,4.6-35.7,13.8
	s-13.8,21.1-13.8,35.7s4.6,26.5,13.8,35.7C907.8,197.7,919.7,202.3,934.3,202.3z"/>
<path class="st0" d="M1052.8,17.8h30v210h-30V17.8z"/>
<path class="st0" d="M1258.3,77.8l-71.4,210h-31.5l20.4-60h-19.5l-51-150h31.5l45,132.3l45-132.3L1258.3,77.8L1258.3,77.8z"/>
</svg>
