<svg width="696.396875px" height="199.47412109375px" xmlns="http://www.w3.org/2000/svg" viewBox="-98.19843750000001 -24.737060546875 696.396875 199.47412109375" style="background: rgba(0, 0, 0, 0);" preserveAspectRatio="xMidYMid"><defs><filter id="editing-hole" x="-100%" y="-100%" width="300%" height="300%"><feFlood flood-color="#000" result="black"></feFlood><feMorphology operator="dilate" radius="2" in="SourceGraphic" result="erode"></feMorphology><feGaussianBlur in="erode" stdDeviation="4" result="blur"></feGaussianBlur><feOffset in="blur" dx="2" dy="2" result="offset"></feOffset><feComposite operator="atop" in="offset" in2="black" result="merge"></feComposite><feComposite operator="in" in="merge" in2="SourceGraphic" result="inner-shadow"></feComposite></filter></defs><g filter="url(#editing-hole)"><g transform="translate(3.294972538948059, 125.35017585754395)"><path d="M20.31 1.42L20.31 1.42L20.31 1.42Q17.19 1.42 14.33 0.54L14.33 0.54L14.33 0.54Q11.47-0.34 9.28-2.15L9.28-2.15L9.28-2.15Q7.08-3.96 5.79-6.71L5.79-6.71L5.79-6.71Q4.49-9.47 4.49-13.23L4.49-13.23L4.49-13.23Q4.49-16.85 5.66-19.51L5.66-19.51L5.66-19.51Q6.84-22.17 8.81-24.07L8.81-24.07L8.81-24.07Q10.79-25.98 13.45-27.22L13.45-27.22L13.45-27.22Q16.11-28.47 19.09-29.17L19.09-29.17L19.09-29.17Q22.07-29.88 25.22-30.15L25.22-30.15L25.22-30.15Q28.37-30.42 31.35-30.42L31.35-30.42L31.35-30.42Q33.40-30.42 35.30-30.32L35.30-30.32L35.30-30.32Q37.21-30.22 38.87-30.08L38.87-30.08L38.87-30.08Q38.77-33.15 37.70-35.18L37.70-35.18L37.70-35.18Q36.62-37.21 34.86-38.40L34.86-38.40L34.86-38.40Q33.11-39.60 30.76-40.09L30.76-40.09L30.76-40.09Q28.42-40.58 25.83-40.58L25.83-40.58L25.83-40.58Q23.44-40.58 20.92-40.26L20.92-40.26L20.92-40.26Q18.41-39.94 16.02-39.48L16.02-39.48L16.02-39.48Q13.62-39.01 11.45-38.48L11.45-38.48L11.45-38.48Q9.28-37.94 7.62-37.50L7.62-37.50L7.62-51.17L7.62-51.17Q10.01-51.71 12.77-52.22L12.77-52.22L12.77-52.22Q15.53-52.73 18.51-53.13L18.51-53.13L18.51-53.13Q21.48-53.52 24.58-53.76L24.58-53.76L24.58-53.76Q27.69-54.00 30.71-54.00L30.71-54.00L30.71-54.00Q34.47-54.00 38.11-53.54L38.11-53.54L38.11-53.54Q41.75-53.08 45.00-52.00L45.00-52.00L45.00-52.00Q48.24-50.93 51.00-49.12L51.00-49.12L51.00-49.12Q53.76-47.31 55.74-44.65L55.74-44.65L55.74-44.65Q57.71-41.99 58.84-38.38L58.84-38.38L58.84-38.38Q59.96-34.77 59.96-30.03L59.96-30.03L59.96 0L39.84 0L39.84-8.74L39.84-8.74Q38.67-6.35 36.57-4.47L36.57-4.47L36.57-4.47Q34.47-2.59 31.84-1.27L31.84-1.27L31.84-1.27Q29.20 0.05 26.22 0.73L26.22 0.73L26.22 0.73Q23.24 1.42 20.31 1.42ZM28.56-10.06L28.56-10.06L28.56-10.06Q29.93-10.06 31.71-10.82L31.71-10.82L31.71-10.82Q33.50-11.57 35.08-13.13L35.08-13.13L35.08-13.13Q36.67-14.70 37.77-17.09L37.77-17.09L37.77-17.09Q38.87-19.48 38.87-22.80L38.87-22.80L37.26-22.80L37.26-22.80Q34.91-22.80 32.45-22.31L32.45-22.31L32.45-22.31Q29.98-21.83 27.93-20.85L27.93-20.85L27.93-20.85Q25.88-19.87 24.56-18.46L24.56-18.46L24.56-18.46Q23.24-17.04 23.24-15.19L23.24-15.19L23.24-15.19Q23.24-13.72 23.73-12.74L23.73-12.74L23.73-12.74Q24.22-11.77 24.98-11.16L24.98-11.16L24.98-11.16Q25.73-10.55 26.68-10.30L26.68-10.30L26.68-10.30Q27.64-10.06 28.56-10.06ZM74.12 0L74.12-52.69L95.21-52.69L95.21-52.69Q94.92-51.03 94.63-48.41L94.63-48.41L94.63-48.41Q94.34-45.80 94.34-43.02L94.34-43.02L94.34-43.02Q96.00-45.51 98.51-47.53L98.51-47.53L98.51-47.53Q101.03-49.56 104.05-51.00L104.05-51.00L104.05-51.00Q107.08-52.44 110.47-53.22L110.47-53.22L110.47-53.22Q113.87-54.00 117.33-54.00L117.33-54.00L117.33-54.00Q121.14-54.00 124.56-52.86L124.56-52.86L124.56-52.86Q127.98-51.71 130.57-49.22L130.57-49.22L130.57-49.22Q133.15-46.73 134.67-42.75L134.67-42.75L134.67-42.75Q136.18-38.77 136.18-33.11L136.18-33.11L136.18 0L115.09 0L115.09-30.03L115.09-30.03Q115.09-33.06 114.45-35.06L114.45-35.06L114.45-35.06Q113.82-37.06 112.70-38.23L112.70-38.23L112.70-38.23Q111.57-39.40 110.03-39.89L110.03-39.89L110.03-39.89Q108.50-40.38 106.69-40.38L106.69-40.38L106.69-40.38Q104.74-40.38 102.83-39.72L102.83-39.72L102.83-39.72Q100.93-39.06 99.37-37.94L99.37-37.94L99.37-37.94Q97.80-36.82 96.68-35.30L96.68-35.30L96.68-35.30Q95.56-33.79 95.21-32.08L95.21-32.08L95.21 0L74.12 0ZM177.64 1.42L177.64 1.42L177.64 1.42Q171.88 1.42 167.38 0.34L167.38 0.34L167.38 0.34Q162.89-0.73 159.52-2.64L159.52-2.64L159.52-2.64Q156.15-4.54 153.78-7.15L153.78-7.15L153.78-7.15Q151.42-9.77 149.95-12.84L149.95-12.84L149.95-12.84Q148.49-15.92 147.83-19.34L147.83-19.34L147.83-19.34Q147.17-22.75 147.17-26.27L147.17-26.27L147.17-26.27Q147.17-29.74 147.83-33.13L147.83-33.13L147.83-33.13Q148.49-36.52 149.95-39.62L149.95-39.62L149.95-39.62Q151.42-42.72 153.76-45.34L153.76-45.34L153.76-45.34Q156.10-47.95 159.50-49.88L159.50-49.88L159.50-49.88Q162.89-51.81 167.38-52.91L167.38-52.91L167.38-52.91Q171.88-54.00 177.64-54.00L177.64-54.00L177.64-54.00Q183.40-54.00 187.89-52.91L187.89-52.91L187.89-52.91Q192.38-51.81 195.78-49.88L195.78-49.88L195.78-49.88Q199.17-47.95 201.51-45.34L201.51-45.34L201.51-45.34Q203.86-42.72 205.32-39.62L205.32-39.62L205.32-39.62Q206.79-36.52 207.45-33.13L207.45-33.13L207.45-33.13Q208.11-29.74 208.11-26.27L208.11-26.27L208.11-26.27Q208.11-22.75 207.45-19.34L207.45-19.34L207.45-19.34Q206.79-15.92 205.32-12.84L205.32-12.84L205.32-12.84Q203.86-9.77 201.49-7.15L201.49-7.15L201.49-7.15Q199.12-4.54 195.75-2.64L195.75-2.64L195.75-2.64Q192.38-0.73 187.89 0.34L187.89 0.34L187.89 0.34Q183.40 1.42 177.64 1.42ZM168.26-26.27L168.26-26.27L168.26-26.27Q168.26-23.63 168.75-21.12L168.75-21.12L168.75-21.12Q169.24-18.60 170.34-16.63L170.34-16.63L170.34-16.63Q171.44-14.65 173.22-13.45L173.22-13.45L173.22-13.45Q175-12.26 177.64-12.26L177.64-12.26L177.64-12.26Q180.27-12.26 182.06-13.45L182.06-13.45L182.06-13.45Q183.84-14.65 184.94-16.63L184.94-16.63L184.94-16.63Q186.04-18.60 186.52-21.12L186.52-21.12L186.52-21.12Q187.01-23.63 187.01-26.27L187.01-26.27L187.01-26.27Q187.01-28.91 186.52-31.42L186.52-31.42L186.52-31.42Q186.04-33.94 184.94-35.91L184.94-35.91L184.94-35.91Q183.84-37.89 182.06-39.11L182.06-39.11L182.06-39.11Q180.27-40.33 177.64-40.33L177.64-40.33L177.64-40.33Q175-40.33 173.22-39.11L173.22-39.11L173.22-39.11Q171.44-37.89 170.34-35.91L170.34-35.91L170.34-35.91Q169.24-33.94 168.75-31.42L168.75-31.42L168.75-31.42Q168.26-28.91 168.26-26.27ZM219.53 0L219.53-52.69L240.87-52.69L240.87-52.69Q240.43-51.27 240.14-50.07L240.14-50.07L240.14-50.07Q239.84-48.88 239.70-47.71L239.70-47.71L239.70-47.71Q239.55-46.53 239.48-45.34L239.48-45.34L239.48-45.34Q239.40-44.14 239.40-42.77L239.40-42.77L239.40-42.77Q240.72-44.97 242.82-47.02L242.82-47.02L242.82-47.02Q244.92-49.07 247.53-50.61L247.53-50.61L247.53-50.61Q250.15-52.15 253.10-53.08L253.10-53.08L253.10-53.08Q256.05-54.00 259.08-54.00L259.08-54.00L259.08-54.00Q261.47-54.00 263.79-53.32L263.79-53.32L263.79-53.32Q266.11-52.64 268.21-51.27L268.21-51.27L268.21-51.27Q270.31-49.90 272.07-47.90L272.07-47.90L272.07-47.90Q273.83-45.90 275.10-43.21L275.10-43.21L275.10-43.21Q276.61-45.56 279.03-47.53L279.03-47.53L279.03-47.53Q281.45-49.51 284.38-50.95L284.38-50.95L284.38-50.95Q287.30-52.39 290.60-53.20L290.60-53.20L290.60-53.20Q293.90-54.00 297.17-54.00L297.17-54.00L297.17-54.00Q302.44-54.00 306.13-52.49L306.13-52.49L306.13-52.49Q309.81-50.98 312.08-48.19L312.08-48.19L312.08-48.19Q314.36-45.41 315.38-41.50L315.38-41.50L315.38-41.50Q316.41-37.60 316.41-32.86L316.41-32.86L316.41 0L295.31 0L295.31-29.79L295.31-29.79Q295.31-31.20 295.00-33.03L295.00-33.03L295.00-33.03Q294.68-34.86 293.80-36.50L293.80-36.50L293.80-36.50Q292.92-38.13 291.38-39.26L291.38-39.26L291.38-39.26Q289.84-40.38 287.35-40.38L287.35-40.38L287.35-40.38Q285.64-40.38 284.13-39.55L284.13-39.55L284.13-39.55Q282.62-38.72 281.45-37.35L281.45-37.35L281.45-37.35Q280.27-35.99 279.59-34.23L279.59-34.23L279.59-34.23Q278.91-32.47 278.91-30.62L278.91-30.62L278.91 0L257.81 0L257.81-29.79L257.81-29.79Q257.81-31.79 257.45-33.69L257.45-33.69L257.45-33.69Q257.08-35.60 256.20-37.08L256.20-37.08L256.20-37.08Q255.32-38.57 253.81-39.48L253.81-39.48L253.81-39.48Q252.29-40.38 250-40.38L250-40.38L250-40.38Q248.39-40.38 246.70-39.77L246.70-39.77L246.70-39.77Q245.02-39.16 243.68-38.11L243.68-38.11L243.68-38.11Q242.33-37.06 241.48-35.60L241.48-35.60L241.48-35.60Q240.63-34.13 240.63-32.42L240.63-32.42L240.63 0L219.53 0ZM343.90 1.42L343.90 1.42L343.90 1.42Q340.77 1.42 337.92 0.54L337.92 0.54L337.92 0.54Q335.06-0.34 332.86-2.15L332.86-2.15L332.86-2.15Q330.66-3.96 329.37-6.71L329.37-6.71L329.37-6.71Q328.08-9.47 328.08-13.23L328.08-13.23L328.08-13.23Q328.08-16.85 329.25-19.51L329.25-19.51L329.25-19.51Q330.42-22.17 332.40-24.07L332.40-24.07L332.40-24.07Q334.38-25.98 337.04-27.22L337.04-27.22L337.04-27.22Q339.70-28.47 342.68-29.17L342.68-29.17L342.68-29.17Q345.65-29.88 348.80-30.15L348.80-30.15L348.80-30.15Q351.95-30.42 354.93-30.42L354.93-30.42L354.93-30.42Q356.98-30.42 358.89-30.32L358.89-30.32L358.89-30.32Q360.79-30.22 362.45-30.08L362.45-30.08L362.45-30.08Q362.35-33.15 361.28-35.18L361.28-35.18L361.28-35.18Q360.21-37.21 358.45-38.40L358.45-38.40L358.45-38.40Q356.69-39.60 354.35-40.09L354.35-40.09L354.35-40.09Q352.00-40.58 349.41-40.58L349.41-40.58L349.41-40.58Q347.02-40.58 344.51-40.26L344.51-40.26L344.51-40.26Q341.99-39.94 339.60-39.48L339.60-39.48L339.60-39.48Q337.21-39.01 335.03-38.48L335.03-38.48L335.03-38.48Q332.86-37.94 331.20-37.50L331.20-37.50L331.20-51.17L331.20-51.17Q333.59-51.71 336.35-52.22L336.35-52.22L336.35-52.22Q339.11-52.73 342.09-53.13L342.09-53.13L342.09-53.13Q345.07-53.52 348.17-53.76L348.17-53.76L348.17-53.76Q351.27-54.00 354.30-54.00L354.30-54.00L354.30-54.00Q358.06-54.00 361.69-53.54L361.69-53.54L361.69-53.54Q365.33-53.08 368.58-52.00L368.58-52.00L368.58-52.00Q371.83-50.93 374.58-49.12L374.58-49.12L374.58-49.12Q377.34-47.31 379.32-44.65L379.32-44.65L379.32-44.65Q381.30-41.99 382.42-38.38L382.42-38.38L382.42-38.38Q383.54-34.77 383.54-30.03L383.54-30.03L383.54 0L363.43 0L363.43-8.74L363.43-8.74Q362.26-6.35 360.16-4.47L360.16-4.47L360.16-4.47Q358.06-2.59 355.42-1.27L355.42-1.27L355.42-1.27Q352.78 0.05 349.80 0.73L349.80 0.73L349.80 0.73Q346.83 1.42 343.90 1.42ZM352.15-10.06L352.15-10.06L352.15-10.06Q353.52-10.06 355.30-10.82L355.30-10.82L355.30-10.82Q357.08-11.57 358.67-13.13L358.67-13.13L358.67-13.13Q360.25-14.70 361.35-17.09L361.35-17.09L361.35-17.09Q362.45-19.48 362.45-22.80L362.45-22.80L360.84-22.80L360.84-22.80Q358.50-22.80 356.03-22.31L356.03-22.31L356.03-22.31Q353.56-21.83 351.51-20.85L351.51-20.85L351.51-20.85Q349.46-19.87 348.14-18.46L348.14-18.46L348.14-18.46Q346.83-17.04 346.83-15.19L346.83-15.19L346.83-15.19Q346.83-13.72 347.31-12.74L347.31-12.74L347.31-12.74Q347.80-11.77 348.56-11.16L348.56-11.16L348.56-11.16Q349.32-10.55 350.27-10.30L350.27-10.30L350.27-10.30Q351.22-10.06 352.15-10.06ZM397.71 0L397.71-75L418.80-75L418.80 0L397.71 0ZM467.82-19.34L467.82-52.69L488.92-52.69L488.92-7.37L488.92-7.37Q488.92-1.86 487.79 2.54L487.79 2.54L487.79 2.54Q486.67 6.93 484.67 10.38L484.67 10.38L484.67 10.38Q482.67 13.82 479.91 16.28L479.91 16.28L479.91 16.28Q477.15 18.75 473.83 20.34L473.83 20.34L473.83 20.34Q470.51 21.92 466.75 22.68L466.75 22.68L466.75 22.68Q462.99 23.44 459.03 23.44L459.03 23.44L459.03 23.44Q453.71 23.44 448.34 22.90L448.34 22.90L448.34 22.90Q442.97 22.36 438.53 21.09L438.53 21.09L439.99 8.79L439.99 8.79Q445.31 10.06 448.90 10.40L448.90 10.40L448.90 10.40Q452.49 10.74 454.20 10.74L454.20 10.74L454.20 10.74Q459.08 10.74 461.99 9.33L461.99 9.33L461.99 9.33Q464.89 7.91 466.41 4.98L466.41 4.98L466.41 4.98Q467.14 3.52 467.60 2.10L467.60 2.10L467.60 2.10Q468.07 0.68 468.36-0.83L468.36-0.83L468.36-0.83Q468.65-2.34 468.75-3.98L468.75-3.98L468.75-3.98Q468.85-5.62 468.85-7.62L468.85-7.62L468.85-7.62Q467.82-5.76 466.06-4.35L466.06-4.35L466.06-4.35Q464.31-2.93 462.16-1.95L462.16-1.95L462.16-1.95Q460.01-0.98 457.64-0.49L457.64-0.49L457.64-0.49Q455.27 0 453.03 0L453.03 0L453.03 0Q449.12 0 445.61-1.20L445.61-1.20L445.61-1.20Q442.09-2.39 439.38-4.96L439.38-4.96L439.38-4.96Q436.67-7.52 435.08-11.52L435.08-11.52L435.08-11.52Q433.50-15.53 433.50-21.09L433.50-21.09L433.50-52.69L452.25-52.69L452.25-21.68L452.25-21.68Q452.25-19.24 452.95-17.46L452.95-17.46L452.95-17.46Q453.66-15.67 454.81-14.53L454.81-14.53L454.81-14.53Q455.96-13.38 457.42-12.82L457.42-12.82L457.42-12.82Q458.89-12.26 460.40-12.26L460.40-12.26L460.40-12.26Q461.82-12.26 463.16-12.72L463.16-12.72L463.16-12.72Q464.50-13.18 465.53-14.09L465.53-14.09L465.53-14.09Q466.55-14.99 467.19-16.31L467.19-16.31L467.19-16.31Q467.82-17.63 467.82-19.34L467.82-19.34Z" fill="#ccc"></path></g></g><style>text {
  font-size: 64px;
  font-family: Arial Black;
  dominant-baseline: central;
  text-anchor: middle;
}</style></svg>